<svg version="1.1" id="Layer_1" xmlns="http://www.w3.org/2000/svg" x="0" y="0" viewBox="0 0 378.3 229.5" xml:space="preserve"><style>.st0{fill:#f3f2f2}.st1{fill:#004f9f}.st2{fill:#f39325}.st3{fill:#fff}.st4{fill:#9d9d9c}</style><path class="st0" d="M-1158.7-182.9h841.9v595.3h-841.9z"/><path class="st1" d="M695.1-182.9H1537v595.3H695.1z"/><path class="st2" d="M1622-182.9h841.9v595.3H1622z"/><path class="st0" d="M2549-182.9h841.9v595.3H2549zm926.9 0h841.9v595.3h-841.9zm-4634.6 680.3h841.9v595.3h-841.9z"/><path class="st1" d="M-231.8 497.4h841.9v595.3h-841.9zm926.9 0H1537v595.3H695.1z"/><path class="st2" d="M1622 497.4h841.9v595.3H1622z"/><path class="st0" d="M2549 497.4h841.9v595.3H2549zm926.9 0h841.9v595.3h-841.9z"/><path class="st2" d="M241.2 83.7c-3.4-7.7-9.9-13.6-18.4-17.1 7.1-16.2 10.5-36.8 3-51.2-8.2-15.7-25.4-19.9-43.9-10.5-22.3 11.3-36.6 36.5-42.6 56.4-11.4 37.9.8 78.1 2.3 82.8v.1l2.4 7.4 7.4-2.3c10.2-3.2 20.2-5.5 29.9-7.7 24.6-5.7 45.9-10.6 56.5-27.2 6.5-9.8 7.7-21 3.4-30.7zm-86.8-17.8c4.8-16 16.7-37.8 34.6-46.9 3.6-1.8 7.8-3.3 11.7-3.3 4.3 0 8.4 1.8 11.1 7 4.6 8.9 2.4 26.1-5 40.8-32-.1-47.6 23.7-55.9 45.1-1.2-13.4-.7-28.7 3.5-42.7zm70.3 39.9c-7.2 11.3-24.7 15.3-46.9 20.4-5.7 1.3-11.5 2.7-17.4 4.3 7.4-27 18.9-53.4 50.1-51 7.9 1.3 13.9 5.2 16.3 10.6 2.1 4.8 1.4 10.4-2.1 15.7z"/><path class="st3" d="M46 188.6c5.5-2.2 11.2-7 11.2-16.2 0-14.6-11.9-20.8-31.2-20.8 0 0-26 .9-26 21.6v54.3h26c19.1 0 33.1-5.9 33.1-21.9 0-10.3-6.9-15.7-13.1-17zm-28.5-16.2c0-6.1 8.5-6.1 8.5-6.1 8 0 13 1.3 13 7.7s-5 7.9-13 7.9h-8.5v-9.5zm9.1 40.4h-9.1v-16.7h9.1c8 0 14.4 1.9 14.4 8.3-.1 6.4-6.4 8.4-14.4 8.4zm90.6-16.2c0-12.5-5.9-24.3-23.6-24.3-15.3 0-27.2 9.9-27.2 28.2 0 21.5 14.1 29.1 30.4 29.1 5 0 7.4-.8 12.2-2.2 2.7-.8 4.5-3.2 4.5-6v-9.6c-4 1.8-7.7 3.7-14.7 3.7-7.3 0-14-2-15.1-9.1h22.8c11.9 0 10.7-9.8 10.7-9.8zm-33.6-1c.7-7.5 4.5-10.7 9.5-10.7 4.1 0 7.9 1.7 9.1 7.2.4 1.8-.9 3.5-2.7 3.5H83.6zm149.9 1c0-12.5-5.9-24.3-23.6-24.3-15.3 0-27.2 9.9-27.2 28.2 0 21.5 14.1 29.1 30.4 29.1 5 0 7.4-.8 12.2-2.2 2.7-.8 4.5-3.2 4.5-6v-9.6c-4 1.8-7.7 3.7-14.7 3.7-7.3 0-14-2-15.1-9.1h22.8c11.9 0 10.7-9.8 10.7-9.8zm-33.6-1c.7-7.5 4.5-10.7 9.5-10.7 4.1 0 7.9 1.7 9.1 7.2.4 1.8-.9 3.5-2.7 3.5h-15.9zm-43.8-23.3c-5.7 0-12.1 2.1-16 5.9 0 0-2.2-4-8.5-4h-7v53.3h10c3.5 0 6.3-2.8 6.3-6.3v-30.7c2.4-1.5 5.6-2.8 9.9-2.8 4.5 0 8.4 2.1 8.4 8.3v25.3c0 3.5 2.8 6.3 6.3 6.3h9.9v-33.1c-.1-15.7-8.7-22.2-19.3-22.2zm117.4 6.2l-9.9 29.6-9.9-29.6c-.9-2.6-3.3-4.3-5.9-4.3h-12.5l19.7 53.3h15.8l20.5-53.3h-11.9c-2.7 0-5.1 1.7-5.9 4.3zm25.1-4.3h16.3v53.3h-16.3zm61.3 26.6l17.7-26.6h-14.8c-2.2 0-4.2 1.1-5.4 3l-6.8 11.2-7-11.3c-1.1-1.8-3.2-3-5.3-3h-16l18.1 26.4-18.2 26.9h14.6c2.1 0 4.1-1.1 5.3-2.9l7.3-11.5 7.7 11.6c1.2 1.8 3.1 2.8 5.2 2.8h15.9l-18.3-26.6zm-53.2-49.1c-5 0-9 4-9 9s4 9 9 9 9-4 9-9-4-9-9-9zm1988.4 651.2c-3.4-7.7-9.9-13.6-18.4-17.1 7.1-16.2 10.5-36.8 3-51.2-8.2-15.7-25.4-19.9-43.9-10.5-22.3 11.3-36.6 36.5-42.6 56.4-11.4 37.9.8 78.1 2.3 82.8v.1l2.4 7.4 7.4-2.3c10.2-3.2 20.2-5.5 29.9-7.7 24.6-5.7 45.9-10.6 56.5-27.2 6.5-9.8 7.7-21 3.4-30.7zm-86.8-17.8c4.8-16 16.7-37.8 34.6-46.9 3.6-1.8 7.8-3.3 11.7-3.3 4.3 0 8.4 1.8 11.1 7 4.6 8.9 2.4 26.1-5 40.8-32-.1-47.6 23.7-55.9 45.1-1.2-13.4-.7-28.7 3.5-42.7zm70.3 40c-7.2 11.3-24.7 15.3-46.9 20.4-5.7 1.3-11.5 2.7-17.4 4.3 7.4-27 18.9-53.4 50.1-51 7.9 1.3 13.9 5.2 16.3 10.6 2.1 4.7 1.4 10.3-2.1 15.7zM1834.3 794c5.5-2.2 11.2-7 11.2-16.2 0-14.6-11.9-20.8-31.2-20.8 0 0-26 .9-26 21.6v54.3h26c19.1 0 33.1-5.9 33.1-21.9 0-10.2-6.9-15.6-13.1-17zm-28.5-16.1c0-6.1 8.5-6.1 8.5-6.1 8 0 13 1.3 13 7.7s-5 7.9-13 7.9h-8.5v-9.5zm9.1 40.4h-9.1v-16.7h9.1c8 0 14.4 1.9 14.4 8.3s-6.4 8.4-14.4 8.4zm90.6-16.2c0-12.5-5.9-24.3-23.6-24.3-15.3 0-27.2 9.9-27.2 28.2 0 21.5 14.1 29.1 30.4 29.1 5 0 7.4-.8 12.2-2.2 2.7-.8 4.5-3.2 4.5-6v-9.6c-4 1.8-7.7 3.7-14.7 3.7-7.3 0-14-2-15.1-9.1h22.8c11.9-.1 10.7-9.8 10.7-9.8zm-33.5-1c.7-7.5 4.5-10.7 9.5-10.7 4.1 0 7.9 1.7 9.1 7.2.4 1.8-.9 3.5-2.7 3.5H1872zm149.8 1c0-12.5-5.9-24.3-23.6-24.3-15.3 0-27.2 9.9-27.2 28.2 0 21.5 14.1 29.1 30.4 29.1 5 0 7.4-.8 12.2-2.2 2.7-.8 4.5-3.2 4.5-6v-9.6c-4 1.8-7.7 3.7-14.7 3.7-7.3 0-14-2-15.1-9.1h22.8c11.9-.1 10.7-9.8 10.7-9.8zm-33.6-1c.7-7.5 4.5-10.7 9.5-10.7 4.1 0 7.9 1.7 9.1 7.2.4 1.8-.9 3.5-2.7 3.5h-15.9zm-43.8-23.3c-5.7 0-12.1 2.1-16 5.9 0 0-2.2-4-8.5-4h-7V833h10c3.5 0 6.3-2.8 6.3-6.3V796c2.4-1.5 5.6-2.8 9.9-2.8 4.5 0 8.4 2.1 8.4 8.3v25.3c0 3.5 2.8 6.3 6.3 6.3h9.9V800c-.1-15.7-8.6-22.2-19.3-22.2zm117.4 6.2l-9.9 29.6-9.9-29.6c-.9-2.6-3.3-4.3-5.9-4.3h-12.5l19.7 53.3h15.8l20.5-53.3h-11.9c-2.6 0-5 1.7-5.9 4.3zm25.1-4.3h16.3V833h-16.3zm61.3 26.6l17.7-26.6h-14.8c-2.2 0-4.2 1.1-5.4 3l-6.8 11.2-7-11.3c-1.1-1.8-3.2-3-5.3-3h-16l18.1 26.4-18.2 26.9h14.6c2.1 0 4.1-1.1 5.3-2.9l7.3-11.5 7.7 11.6c1.2 1.8 3.1 2.8 5.2 2.8h15.9l-18.3-26.6zm-53.2-49.2c-5 0-9 4-9 9s4 9 9 9 9-4 9-9c0-4.9-4-9-9-9z"/><path class="st2" d="M-685.7 83.7c-3.4-7.7-9.9-13.6-18.4-17.1 7.1-16.2 10.5-36.8 3-51.2C-709.3-.3-726.5-4.4-745 4.9c-22.3 11.3-36.6 36.5-42.6 56.4-11.4 37.9.8 78.1 2.3 82.8v.1l2.4 7.4 7.4-2.3c10.2-3.2 20.2-5.5 29.9-7.7 24.6-5.7 45.9-10.6 56.5-27.2 6.5-9.8 7.7-21 3.4-30.7zm-86.8-17.8c4.8-16 16.7-37.8 34.6-46.9 3.6-1.8 7.8-3.3 11.7-3.3 4.3 0 8.4 1.8 11.1 7 4.6 8.9 2.4 26.1-5 40.8-32-.1-47.6 23.7-55.9 45.1-1.2-13.4-.7-28.7 3.5-42.7zm70.2 39.9c-7.2 11.3-24.7 15.3-46.9 20.4-5.7 1.3-11.5 2.7-17.4 4.3 7.4-27 18.9-53.4 50.1-51 7.9 1.3 13.9 5.2 16.3 10.6 2.2 4.8 1.4 10.4-2.1 15.7z"/><path class="st1" d="M-880.9 188.6c5.5-2.2 11.2-7 11.2-16.2 0-14.6-11.9-20.8-31.2-20.8 0 0-26 .9-26 21.6v54.3h26c19.1 0 33.1-5.9 33.1-21.9 0-10.3-7-15.7-13.1-17zm-28.5-16.2c0-6.1 8.5-6.1 8.5-6.1 8 0 13 1.3 13 7.7s-5 7.9-13 7.9h-8.5v-9.5zm9.1 40.4h-9.1v-16.7h9.1c8 0 14.4 1.9 14.4 8.3-.1 6.4-6.5 8.4-14.4 8.4zm90.6-16.2c0-12.5-5.9-24.3-23.6-24.3-15.3 0-27.2 9.9-27.2 28.2 0 21.5 14.1 29.1 30.4 29.1 5 0 7.4-.8 12.2-2.2 2.7-.8 4.5-3.2 4.5-6v-9.6c-4 1.8-7.7 3.7-14.7 3.7-7.3 0-14-2-15.1-9.1h22.8c11.9 0 10.7-9.8 10.7-9.8zm-33.6-1c.7-7.5 4.5-10.7 9.5-10.7 4.1 0 7.9 1.7 9.1 7.2.4 1.8-.9 3.5-2.7 3.5h-15.9zm149.9 1c0-12.5-5.9-24.3-23.6-24.3-15.3 0-27.2 9.9-27.2 28.2 0 21.5 14.1 29.1 30.4 29.1 5 0 7.4-.8 12.2-2.2 2.7-.8 4.5-3.2 4.5-6v-9.6c-4 1.8-7.7 3.7-14.7 3.7-7.3 0-14-2-15.1-9.1h22.8c11.9 0 10.7-9.8 10.7-9.8zm-33.6-1c.7-7.5 4.5-10.7 9.5-10.7 4.1 0 7.9 1.7 9.1 7.2.4 1.8-.9 3.5-2.7 3.5H-727zm-43.9-23.3c-5.7 0-12.1 2.1-16 5.9 0 0-2.2-4-8.5-4h-7v53.3h10c3.5 0 6.3-2.8 6.3-6.3v-30.7c2.4-1.5 5.6-2.8 9.9-2.8 4.5 0 8.4 2.1 8.4 8.3v25.3c0 3.5 2.8 6.3 6.3 6.3h9.9v-33.1c-.1-15.7-8.6-22.2-19.3-22.2zm117.5 6.2l-9.9 29.6-9.9-29.6c-.9-2.6-3.3-4.3-5.9-4.3h-12.5l19.7 53.3h15.8l20.5-53.3h-11.9c-2.7 0-5.1 1.7-5.9 4.3zm25-4.3h16.3v53.3h-16.3zm61.3 26.6l17.7-26.6h-14.8c-2.2 0-4.2 1.1-5.4 3l-6.8 11.2-7-11.3c-1.1-1.8-3.2-3-5.3-3h-16l18.1 26.4-18.2 26.9h14.6c2.1 0 4.1-1.1 5.3-2.9l7.3-11.5 7.7 11.6c1.2 1.8 3.1 2.8 5.2 2.8h15.9l-18.3-26.6zm-53.1-49.1c-5 0-9 4-9 9s4 9 9 9 9-4 9-9-4.1-9-9-9z"/><path class="st3" d="M1168.1 83.7c-3.4-7.7-9.9-13.6-18.4-17.1 7.1-16.2 10.5-36.8 3-51.2-8.2-15.7-25.4-19.9-43.9-10.5-22.3 11.3-36.6 36.5-42.6 56.4-11.4 37.9.8 78.1 2.3 82.8v.1l2.4 7.4 7.4-2.3c10.2-3.2 20.2-5.5 29.9-7.7 24.6-5.7 45.9-10.6 56.5-27.2 6.5-9.8 7.7-21 3.4-30.7zm-86.7-17.8c4.8-16 16.7-37.8 34.6-46.9 3.6-1.8 7.8-3.3 11.7-3.3 4.3 0 8.4 1.8 11.1 7 4.6 8.9 2.4 26.1-5 40.8-32-.1-47.6 23.7-55.9 45.1-1.3-13.4-.8-28.7 3.5-42.7zm70.2 39.9c-7.2 11.3-24.7 15.3-46.9 20.4-5.7 1.3-11.5 2.7-17.4 4.3 7.4-27 18.9-53.4 50.1-51 7.9 1.3 13.9 5.2 16.3 10.6 2.1 4.8 1.4 10.4-2.1 15.7zm-178.7 82.8c5.5-2.2 11.2-7 11.2-16.2 0-14.6-11.9-20.8-31.2-20.8 0 0-26 .9-26 21.6v54.3h26c19.1 0 33.1-5.9 33.1-21.9 0-10.3-6.9-15.7-13.1-17zm-28.5-16.2c0-6.1 8.5-6.1 8.5-6.1 8 0 13 1.3 13 7.7s-5 7.9-13 7.9h-8.5v-9.5zm9.1 40.4h-9.1v-16.7h9.1c8 0 14.4 1.9 14.4 8.3s-6.4 8.4-14.4 8.4zm90.6-16.2c0-12.5-5.9-24.3-23.6-24.3-15.3 0-27.2 9.9-27.2 28.2 0 21.5 14.1 29.1 30.4 29.1 5 0 7.4-.8 12.2-2.2 2.7-.8 4.5-3.2 4.5-6v-9.6c-4 1.8-7.7 3.7-14.7 3.7-7.3 0-14-2-15.1-9.1h22.8c11.9 0 10.7-9.8 10.7-9.8zm-33.5-1c.7-7.5 4.5-10.7 9.5-10.7 4.1 0 7.9 1.7 9.1 7.2.4 1.8-.9 3.5-2.7 3.5h-15.9zm149.8 1c0-12.5-5.9-24.3-23.6-24.3-15.3 0-27.2 9.9-27.2 28.2 0 21.5 14.1 29.1 30.4 29.1 5 0 7.4-.8 12.2-2.2 2.7-.8 4.5-3.2 4.5-6v-9.6c-4 1.8-7.7 3.7-14.7 3.7-7.3 0-14-2-15.1-9.1h22.8c11.9 0 10.7-9.8 10.7-9.8zm-33.6-1c.7-7.5 4.5-10.7 9.5-10.7 4.1 0 7.9 1.7 9.1 7.2.4 1.8-.9 3.5-2.7 3.5h-15.9zm-43.8-23.3c-5.7 0-12.1 2.1-16 5.9 0 0-2.2-4-8.5-4h-7v53.3h10c3.5 0 6.3-2.8 6.3-6.3v-30.7c2.4-1.5 5.6-2.8 9.9-2.8 4.5 0 8.4 2.1 8.4 8.3v25.3c0 3.5 2.8 6.3 6.3 6.3h9.9v-33.1c-.1-15.7-8.6-22.2-19.3-22.2zm117.4 6.2l-9.9 29.6-9.9-29.6c-.9-2.6-3.3-4.3-5.9-4.3h-12.5l19.7 53.3h15.8l20.5-53.3h-11.9c-2.6 0-5 1.7-5.9 4.3zm25.1-4.3h16.3v53.3h-16.3zm61.3 26.6l17.7-26.6h-14.8c-2.2 0-4.2 1.1-5.4 3l-6.8 11.2-7-11.3c-1.1-1.8-3.2-3-5.3-3h-16l18.1 26.4-18.2 26.9h14.6c2.1 0 4.1-1.1 5.3-2.9l7.3-11.5 7.7 11.6c1.2 1.8 3.1 2.8 5.2 2.8h15.9l-18.3-26.6zm-53.2-49.1c-5 0-9 4-9 9s4 9 9 9 9-4 9-9-4-9-9-9zm861.5-68c-3.4-7.7-9.9-13.6-18.4-17.1 7.1-16.2 10.5-36.8 3-51.2-8.2-15.7-25.4-19.9-43.9-10.5-22.3 11.3-36.6 36.5-42.6 56.4-11.4 37.9.8 78.1 2.3 82.8v.1l2.4 7.4 7.4-2.3c10.2-3.2 20.2-5.5 29.9-7.7 24.6-5.7 45.9-10.6 56.5-27.2 6.5-9.8 7.7-21 3.4-30.7zm-86.8-17.8c4.8-16 16.7-37.8 34.6-46.9 3.6-1.8 7.8-3.3 11.7-3.3 4.3 0 8.4 1.8 11.1 7 4.6 8.9 2.4 26.1-5 40.8-32-.1-47.6 23.7-55.9 45.1-1.2-13.4-.7-28.7 3.5-42.7zm70.2 39.9c-7.2 11.3-24.7 15.3-46.9 20.4-5.7 1.3-11.5 2.7-17.4 4.3 7.4-27 18.9-53.4 50.1-51 7.9 1.3 13.9 5.2 16.3 10.6 2.2 4.8 1.4 10.4-2.1 15.7zm-178.6 82.8c5.5-2.2 11.2-7 11.2-16.2 0-14.6-11.9-20.8-31.2-20.8 0 0-26 .9-26 21.6v54.3h26c19.1 0 33.1-5.9 33.1-21.9 0-10.3-7-15.7-13.1-17zm-28.5-16.2c0-6.1 8.5-6.1 8.5-6.1 8 0 13 1.3 13 7.7s-5 7.9-13 7.9h-8.5v-9.5zm9 40.4h-9.1v-16.7h9.1c8 0 14.4 1.9 14.4 8.3s-6.4 8.4-14.4 8.4zm90.7-16.2c0-12.5-5.9-24.3-23.6-24.3-15.3 0-27.2 9.9-27.2 28.2 0 21.5 14.1 29.1 30.4 29.1 5 0 7.4-.8 12.2-2.2 2.7-.8 4.5-3.2 4.5-6v-9.6c-4 1.8-7.7 3.7-14.7 3.7-7.3 0-14-2-15.1-9.1h22.8c11.9 0 10.7-9.8 10.7-9.8zm-33.6-1c.7-7.5 4.5-10.7 9.5-10.7 4.1 0 7.9 1.7 9.1 7.2.4 1.8-.9 3.5-2.7 3.5h-15.9zm149.8 1c0-12.5-5.9-24.3-23.6-24.3-15.3 0-27.2 9.9-27.2 28.2 0 21.5 14.1 29.1 30.4 29.1 5 0 7.4-.8 12.2-2.2 2.7-.8 4.5-3.2 4.5-6v-9.6c-4 1.8-7.7 3.7-14.7 3.7-7.3 0-14-2-15.1-9.1h22.8c11.9 0 10.7-9.8 10.7-9.8zm-33.5-1c.7-7.5 4.5-10.7 9.5-10.7 4.1 0 7.9 1.7 9.1 7.2.4 1.8-.9 3.5-2.7 3.5h-15.9zm-43.9-23.3c-5.7 0-12.1 2.1-16 5.9 0 0-2.2-4-8.5-4h-7v53.3h10c3.5 0 6.3-2.8 6.3-6.3v-30.7c2.4-1.5 5.6-2.8 9.9-2.8 4.5 0 8.4 2.1 8.4 8.3v25.3c0 3.5 2.8 6.3 6.3 6.3h9.9v-33.1c-.1-15.7-8.6-22.2-19.3-22.2zm117.4 6.2l-9.9 29.6-9.9-29.6c-.9-2.6-3.3-4.3-5.9-4.3h-12.5l19.7 53.3h15.8l20.5-53.3h-11.9c-2.6 0-5 1.7-5.9 4.3zm25.1-4.3h16.3v53.3h-16.3zm61.3 26.6l17.7-26.6h-14.8c-2.2 0-4.2 1.1-5.4 3l-6.8 11.2-7-11.3c-1.1-1.8-3.2-3-5.3-3h-16l18.1 26.4-18.2 26.9h14.6c2.1 0 4.1-1.1 5.3-2.9l7.3-11.5 7.7 11.6c1.2 1.8 3.1 2.8 5.2 2.8h15.9l-18.3-26.6zm-53.1-49.1c-5 0-9 4-9 9s4 9 9 9 9-4 9-9-4.1-9-9-9z"/><path class="st4" d="M3022 83.7c-3.4-7.7-9.9-13.6-18.4-17.1 7.1-16.2 10.5-36.8 3-51.2-8.2-15.7-25.4-19.9-43.9-10.5-22.3 11.3-36.6 36.5-42.6 56.4-11.4 37.9.8 78.1 2.3 82.8v.1l2.4 7.4 7.4-2.3c10.2-3.2 20.2-5.5 29.9-7.7 24.6-5.7 45.9-10.6 56.5-27.2 6.5-9.8 7.7-21 3.4-30.7zm-86.8-17.8c4.8-16 16.7-37.8 34.6-46.9 3.6-1.8 7.8-3.3 11.7-3.3 4.3 0 8.4 1.8 11.1 7 4.6 8.9 2.4 26.1-5 40.8-32-.1-47.6 23.7-55.9 45.1-1.2-13.4-.7-28.7 3.5-42.7zm70.3 39.9c-7.2 11.3-24.7 15.3-46.9 20.4-5.7 1.3-11.5 2.7-17.4 4.3 7.4-27 18.9-53.4 50.1-51 7.9 1.3 13.9 5.2 16.3 10.6 2.1 4.8 1.4 10.4-2.1 15.7z"/><path d="M2826.8 188.6c5.5-2.2 11.2-7 11.2-16.2 0-14.6-11.9-20.8-31.2-20.8 0 0-26 .9-26 21.6v54.3h26c19.1 0 33.1-5.9 33.1-21.9 0-10.3-6.9-15.7-13.1-17zm-28.5-16.2c0-6.1 8.5-6.1 8.5-6.1 8 0 13 1.3 13 7.7s-5 7.9-13 7.9h-8.5v-9.5zm9.1 40.4h-9.1v-16.7h9.1c8 0 14.4 1.9 14.4 8.3-.1 6.4-6.5 8.4-14.4 8.4zm90.6-16.2c0-12.5-5.9-24.3-23.6-24.3-15.3 0-27.2 9.9-27.2 28.2 0 21.5 14.1 29.1 30.4 29.1 5 0 7.4-.8 12.2-2.2 2.7-.8 4.5-3.2 4.5-6v-9.6c-4 1.8-7.7 3.7-14.7 3.7-7.3 0-14-2-15.1-9.1h22.8c11.9 0 10.7-9.8 10.7-9.8zm-33.6-1c.7-7.5 4.5-10.7 9.5-10.7 4.1 0 7.9 1.7 9.1 7.2.4 1.8-.9 3.5-2.7 3.5h-15.9zm149.9 1c0-12.5-5.9-24.3-23.6-24.3-15.3 0-27.2 9.9-27.2 28.2 0 21.5 14.1 29.1 30.4 29.1 5 0 7.4-.8 12.2-2.2 2.7-.8 4.5-3.2 4.5-6v-9.6c-4 1.8-7.7 3.7-14.7 3.7-7.3 0-14-2-15.1-9.1h22.8c11.9 0 10.7-9.8 10.7-9.8zm-33.6-1c.7-7.5 4.5-10.7 9.5-10.7 4.1 0 7.9 1.7 9.1 7.2.4 1.8-.9 3.5-2.7 3.5h-15.9zm-43.8-23.3c-5.7 0-12.1 2.1-16 5.9 0 0-2.2-4-8.5-4h-7v53.3h10c3.5 0 6.3-2.8 6.3-6.3v-30.7c2.4-1.5 5.6-2.8 9.9-2.8 4.5 0 8.4 2.1 8.4 8.3v25.3c0 3.5 2.8 6.3 6.3 6.3h9.9v-33.1c-.2-15.7-8.7-22.2-19.3-22.2zm117.4 6.2l-9.9 29.6-9.9-29.6c-.9-2.6-3.3-4.3-5.9-4.3H3016l19.7 53.3h15.8l20.5-53.3h-11.9c-2.6 0-5 1.7-5.8 4.3zm25-4.3h16.3v53.3h-16.3zm61.3 26.6l17.7-26.6h-14.8c-2.2 0-4.2 1.1-5.4 3l-6.8 11.2-7-11.3c-1.1-1.8-3.2-3-5.3-3h-16l18.1 26.4-18.2 26.9h14.6c2.1 0 4.1-1.1 5.3-2.9l7.3-11.5 7.7 11.6c1.2 1.8 3.1 2.8 5.2 2.8h15.9l-18.3-26.6zm-53.1-49.1c-5 0-9 4-9 9s4 9 9 9 9-4 9-9-4-9-9-9zm861.4-68c-3.4-7.7-9.9-13.6-18.4-17.1 7.1-16.2 10.5-36.8 3-51.2-8.2-15.7-25.4-19.9-43.9-10.5-22.3 11.3-36.6 36.5-42.6 56.4-11.4 37.9.8 78.1 2.3 82.8v.1l2.4 7.4 7.4-2.3c10.2-3.2 20.2-5.5 29.9-7.7 24.6-5.7 45.9-10.6 56.5-27.2 6.5-9.8 7.7-21 3.4-30.7zm-86.7-17.8c4.8-16 16.7-37.8 34.6-46.9 3.6-1.8 7.8-3.3 11.7-3.3 4.3 0 8.4 1.8 11.1 7 4.6 8.9 2.4 26.1-5 40.8-32-.1-47.6 23.7-55.9 45.1-1.3-13.4-.8-28.7 3.5-42.7zm70.2 39.9c-7.2 11.3-24.7 15.3-46.9 20.4-5.7 1.3-11.5 2.7-17.4 4.3 7.4-27 18.9-53.4 50.1-51 7.9 1.3 13.9 5.2 16.3 10.6 2.1 4.8 1.4 10.4-2.1 15.7zm-178.7 82.8c5.5-2.2 11.2-7 11.2-16.2 0-14.6-11.9-20.8-31.2-20.8 0 0-26 .9-26 21.6v54.3h26c19.1 0 33.1-5.9 33.1-21.9 0-10.3-6.9-15.7-13.1-17zm-28.5-16.2c0-6.1 8.5-6.1 8.5-6.1 8 0 13 1.3 13 7.7s-5 7.9-13 7.9h-8.5v-9.5zm9.1 40.4h-9.1v-16.7h9.1c8 0 14.4 1.9 14.4 8.3s-6.4 8.4-14.4 8.4zm90.6-16.2c0-12.5-5.9-24.3-23.6-24.3-15.3 0-27.2 9.9-27.2 28.2 0 21.5 14.1 29.1 30.4 29.1 5 0 7.4-.8 12.2-2.2 2.7-.8 4.5-3.2 4.5-6v-9.6c-4 1.8-7.7 3.7-14.7 3.7-7.3 0-14-2-15.1-9.1h22.8c11.9 0 10.7-9.8 10.7-9.8zm-33.6-1c.7-7.5 4.5-10.7 9.5-10.7 4.1 0 7.9 1.7 9.1 7.2.4 1.8-.9 3.5-2.7 3.5h-15.9zm149.9 1c0-12.5-5.9-24.3-23.6-24.3-15.3 0-27.2 9.9-27.2 28.2 0 21.5 14.1 29.1 30.4 29.1 5 0 7.4-.8 12.2-2.2 2.7-.8 4.5-3.2 4.5-6v-9.6c-4 1.8-7.7 3.7-14.7 3.7-7.3 0-14-2-15.1-9.1h22.8c11.9 0 10.7-9.8 10.7-9.8zm-33.6-1c.7-7.5 4.5-10.7 9.5-10.7 4.1 0 7.9 1.7 9.1 7.2.4 1.8-.9 3.5-2.7 3.5h-15.9zm-43.8-23.3c-5.7 0-12.1 2.1-16 5.9 0 0-2.2-4-8.5-4h-7v53.3h10c3.5 0 6.3-2.8 6.3-6.3v-30.7c2.4-1.5 5.6-2.8 9.9-2.8 4.5 0 8.4 2.1 8.4 8.3v25.3c0 3.5 2.8 6.3 6.3 6.3h9.9v-33.1c-.1-15.7-8.7-22.2-19.3-22.2zm117.4 6.2l-9.9 29.6-9.9-29.6c-.9-2.6-3.3-4.3-5.9-4.3H3943l19.7 53.3h15.8l20.5-53.3h-11.9c-2.6 0-5 1.7-5.9 4.3zm25.1-4.3h16.3v53.3h-16.3zm61.3 26.6l17.7-26.6h-14.8c-2.2 0-4.2 1.1-5.4 3l-6.8 11.2-7-11.3c-1.1-1.8-3.2-3-5.3-3h-16l18.1 26.4-18.2 26.9h14.6c2.1 0 4.1-1.1 5.3-2.9l7.3-11.5 7.7 11.6c1.2 1.8 3.1 2.8 5.2 2.8h15.9l-18.3-26.6zm-53.2-49.1c-5 0-9 4-9 9s4 9 9 9 9-4 9-9-4-9-9-9z"/><path class="st2" d="M-485.7 802.9c-3.4-7.7-9.9-13.6-18.4-17.1 7.1-16.2 10.5-36.8 3-51.2-8.2-15.7-25.4-19.9-43.9-10.5-22.3 11.3-36.6 36.5-42.6 56.4-11.4 37.9.8 78.1 2.3 82.8v.1l2.4 7.4 7.4-2.3c10.2-3.2 20.2-5.5 29.9-7.7 24.6-5.7 45.9-10.6 56.5-27.2 6.5-9.8 7.7-21 3.4-30.7zm-86.7-17.8c4.8-16 16.7-37.8 34.6-46.9 3.6-1.8 7.8-3.3 11.7-3.3 4.3 0 8.4 1.8 11.1 7 4.6 8.9 2.4 26.1-5 40.8-32-.1-47.6 23.7-55.9 45.1-1.3-13.4-.8-28.7 3.5-42.7zm70.2 40c-7.2 11.3-24.7 15.3-46.9 20.4-5.7 1.3-11.5 2.7-17.4 4.3 7.4-27 18.9-53.4 50.1-51 7.9 1.3 13.9 5.2 16.3 10.6 2.1 4.7 1.4 10.3-2.1 15.7z"/><path class="st1" d="M-946.5 794c5.5-2.2 11.2-7 11.2-16.2 0-14.6-11.9-20.8-31.2-20.8 0 0-26 .9-26 21.6v54.3h26c19.1 0 33.1-5.9 33.1-21.9.1-10.2-6.9-15.6-13.1-17zm-28.5-16.1c0-6.1 8.5-6.1 8.5-6.1 8 0 13 1.3 13 7.7s-5 7.9-13 7.9h-8.5v-9.5zm9.1 40.4h-9.1v-16.7h9.1c8 0 14.4 1.9 14.4 8.3s-6.4 8.4-14.4 8.4zm90.6-16.2c0-12.5-5.9-24.3-23.6-24.3-15.3 0-27.2 9.9-27.2 28.2 0 21.5 14.1 29.1 30.4 29.1 5 0 7.4-.8 12.2-2.2 2.7-.8 4.5-3.2 4.5-6v-9.6c-4 1.8-7.7 3.7-14.7 3.7-7.3 0-14-2-15.1-9.1h22.8c11.9-.1 10.7-9.8 10.7-9.8zm-33.5-1c.7-7.5 4.5-10.7 9.5-10.7 4.1 0 7.9 1.7 9.1 7.2.4 1.8-.9 3.5-2.7 3.5h-15.9zm149.8 1c0-12.5-5.9-24.3-23.6-24.3-15.3 0-27.2 9.9-27.2 28.2 0 21.5 14.1 29.1 30.4 29.1 5 0 7.4-.8 12.2-2.2 2.7-.8 4.5-3.2 4.5-6v-9.6c-4 1.8-7.7 3.7-14.7 3.7-7.3 0-14-2-15.1-9.1h22.8c11.9-.1 10.7-9.8 10.7-9.8zm-33.6-1c.7-7.5 4.5-10.7 9.5-10.7 4.1 0 7.9 1.7 9.1 7.2.4 1.8-.9 3.5-2.7 3.5h-15.9zm-43.8-23.3c-5.7 0-12.1 2.1-16 5.9 0 0-2.2-4-8.5-4h-7V833h10c3.5 0 6.3-2.8 6.3-6.3V796c2.4-1.5 5.6-2.8 9.9-2.8 4.5 0 8.4 2.1 8.4 8.3v25.3c0 3.5 2.8 6.3 6.3 6.3h9.9V800c-.1-15.7-8.6-22.2-19.3-22.2zM-719 784l-9.9 29.6-9.9-29.6c-.9-2.6-3.3-4.3-5.9-4.3h-12.5l19.7 53.3h15.8l20.5-53.3H-713c-2.7 0-5.1 1.7-6 4.3zm25.1-4.3h16.3V833h-16.3zm61.3 26.6l17.7-26.6h-14.8c-2.2 0-4.2 1.1-5.4 3l-6.8 11.2-7-11.3c-1.1-1.8-3.2-3-5.3-3h-16l18.1 26.4-18.2 26.9h14.6c2.1 0 4.1-1.1 5.3-2.9l7.3-11.5 7.7 11.6c1.2 1.8 3.1 2.8 5.2 2.8h15.9l-18.3-26.6zm-53.2-49.2c-5 0-9 4-9 9s4 9 9 9 9-4 9-9c0-4.9-4-9-9-9z"/><path class="st2" d="M441.2 802.9c-3.4-7.7-9.9-13.6-18.4-17.1 7.1-16.2 10.5-36.8 3-51.2-8.2-15.7-25.4-19.9-43.9-10.5-22.3 11.3-36.6 36.5-42.6 56.4-11.4 37.9.8 78.1 2.3 82.8v.1l2.4 7.4 7.4-2.3c10.2-3.2 20.2-5.5 29.9-7.7 24.6-5.7 45.9-10.6 56.5-27.2 6.5-9.8 7.7-21 3.4-30.7zm-86.7-17.8c4.8-16 16.7-37.8 34.6-46.9 3.6-1.8 7.8-3.3 11.7-3.3 4.3 0 8.4 1.8 11.1 7 4.6 8.9 2.4 26.1-5 40.8-32-.1-47.6 23.7-55.9 45.1-1.2-13.4-.7-28.7 3.5-42.7zm70.2 40c-7.2 11.3-24.7 15.3-46.9 20.4-5.7 1.3-11.5 2.7-17.4 4.3 7.4-27 18.9-53.4 50.1-51 7.9 1.3 13.9 5.2 16.3 10.6 2.2 4.7 1.4 10.3-2.1 15.7z"/><path class="st3" d="M-19.5 794c5.5-2.2 11.2-7 11.2-16.2 0-14.6-11.9-20.8-31.2-20.8 0 0-26 .9-26 21.6v54.3h26c19.1 0 33.1-5.9 33.1-21.9 0-10.2-7-15.6-13.1-17zM-48 777.9c0-6.1 8.5-6.1 8.5-6.1 8 0 13 1.3 13 7.7s-5 7.9-13 7.9H-48v-9.5zm9.1 40.4H-48v-16.7h9.1c8 0 14.4 1.9 14.4 8.3-.1 6.4-6.5 8.4-14.4 8.4zm90.6-16.2c0-12.5-5.9-24.3-23.6-24.3C12.8 777.8.9 787.7.9 806c0 21.5 14.1 29.1 30.4 29.1 5 0 7.4-.8 12.2-2.2 2.7-.8 4.5-3.2 4.5-6v-9.6c-4 1.8-7.7 3.7-14.7 3.7-7.3 0-14-2-15.1-9.1H41c11.9-.1 10.7-9.8 10.7-9.8zm-33.6-1c.7-7.5 4.5-10.7 9.5-10.7 4.1 0 7.9 1.7 9.1 7.2.4 1.8-.9 3.5-2.7 3.5H18.1zm149.9 1c0-12.5-5.9-24.3-23.6-24.3-15.3 0-27.2 9.9-27.2 28.2 0 21.5 14.1 29.1 30.4 29.1 5 0 7.4-.8 12.2-2.2 2.7-.8 4.5-3.2 4.5-6v-9.6c-4 1.8-7.7 3.7-14.7 3.7-7.3 0-14-2-15.1-9.1h22.8c11.9-.1 10.7-9.8 10.7-9.8zm-33.6-1c.7-7.5 4.5-10.7 9.5-10.7 4.1 0 7.9 1.7 9.1 7.2.4 1.8-.9 3.5-2.7 3.5h-15.9zm-43.9-23.3c-5.7 0-12.1 2.1-16 5.9 0 0-2.2-4-8.5-4h-7V833h10c3.5 0 6.3-2.8 6.3-6.3V796c2.4-1.5 5.6-2.8 9.9-2.8 4.5 0 8.4 2.1 8.4 8.3v25.3c0 3.5 2.8 6.3 6.3 6.3h9.9V800c-.1-15.7-8.6-22.2-19.3-22.2zM208 784l-9.9 29.6-9.9-29.6c-.9-2.6-3.3-4.3-5.9-4.3h-12.5l19.7 53.3h15.8l20.5-53.3h-11.9c-2.7 0-5.1 1.7-5.9 4.3zm25-4.3h16.3V833H233zm61.3 26.6l17.7-26.6h-14.8c-2.2 0-4.2 1.1-5.4 3l-6.8 11.2-7-11.3c-1.1-1.8-3.2-3-5.3-3h-16l18.1 26.4-18.2 27h14.6c2.1 0 4.1-1.1 5.3-2.9l7.3-11.5 7.7 11.6c1.2 1.8 3.1 2.8 5.2 2.8h15.9l-18.3-26.7zm-53.1-49.2c-5 0-9 4-9 9s4 9 9 9 9-4 9-9c0-4.9-4.1-9-9-9zm1127 45.8c-3.4-7.7-9.9-13.6-18.4-17.1 7.1-16.2 10.5-36.8 3-51.2-8.2-15.7-25.4-19.9-43.9-10.5-22.3 11.3-36.6 36.5-42.6 56.4-11.4 37.9.8 78.1 2.3 82.8v.1l2.4 7.4 7.4-2.3c10.2-3.2 20.2-5.5 29.9-7.7 24.6-5.7 45.9-10.6 56.5-27.2 6.5-9.8 7.7-21 3.4-30.7zm-86.8-17.8c4.8-16 16.7-37.8 34.6-46.9 3.6-1.8 7.8-3.3 11.7-3.3 4.3 0 8.4 1.8 11.1 7 4.6 8.9 2.4 26.1-5 40.8-32-.1-47.6 23.7-55.9 45.1-1.2-13.4-.7-28.7 3.5-42.7zm70.2 40c-7.2 11.3-24.7 15.3-46.9 20.4-5.7 1.3-11.5 2.7-17.4 4.3 7.4-27 18.9-53.4 50.1-51 7.9 1.3 13.9 5.2 16.3 10.6 2.2 4.7 1.4 10.3-2.1 15.7zM907.4 794c5.5-2.2 11.2-7 11.2-16.2 0-14.6-11.9-20.8-31.2-20.8 0 0-26 .9-26 21.6v54.3h26c19.1 0 33.1-5.9 33.1-21.9 0-10.2-6.9-15.6-13.1-17zm-28.5-16.1c0-6.1 8.5-6.1 8.5-6.1 8 0 13 1.3 13 7.7s-5 7.9-13 7.9h-8.5v-9.5zm9.1 40.4h-9.1v-16.7h9.1c8 0 14.4 1.9 14.4 8.3-.1 6.4-6.5 8.4-14.4 8.4zm90.6-16.2c0-12.5-5.9-24.3-23.6-24.3-15.3 0-27.2 9.9-27.2 28.2 0 21.5 14.1 29.1 30.4 29.1 5 0 7.4-.8 12.2-2.2 2.7-.8 4.5-3.2 4.5-6v-9.6c-4 1.8-7.7 3.7-14.7 3.7-7.3 0-14-2-15.1-9.1h22.8c11.9-.1 10.7-9.8 10.7-9.8zm-33.6-1c.7-7.5 4.5-10.7 9.5-10.7 4.1 0 7.9 1.7 9.1 7.2.4 1.8-.9 3.5-2.7 3.5H945zm149.9 1c0-12.5-5.9-24.3-23.6-24.3-15.3 0-27.2 9.9-27.2 28.2 0 21.5 14.1 29.1 30.4 29.1 5 0 7.4-.8 12.2-2.2 2.7-.8 4.5-3.2 4.5-6v-9.6c-4 1.8-7.7 3.7-14.7 3.7-7.3 0-14-2-15.1-9.1h22.8c11.9-.1 10.7-9.8 10.7-9.8zm-33.6-1c.7-7.5 4.5-10.7 9.5-10.7 4.1 0 7.9 1.7 9.1 7.2.4 1.8-.9 3.5-2.7 3.5h-15.9zm-43.8-23.3c-5.7 0-12.1 2.1-16 5.9 0 0-2.2-4-8.5-4h-7V833h10c3.5 0 6.3-2.8 6.3-6.3V796c2.4-1.5 5.6-2.8 9.9-2.8 4.5 0 8.4 2.1 8.4 8.3v25.3c0 3.5 2.8 6.3 6.3 6.3h9.9V800c-.1-15.7-8.7-22.2-19.3-22.2zm117.4 6.2l-9.9 29.6-9.9-29.6c-.9-2.6-3.3-4.3-5.9-4.3h-12.5l19.7 53.3h15.8l20.5-53.3h-11.9c-2.7 0-5.1 1.7-5.9 4.3zm25.1-4.3h16.3V833H1160zm61.3 26.6l17.7-26.6h-14.8c-2.2 0-4.2 1.1-5.4 3l-6.8 11.2-7-11.3c-1.1-1.8-3.2-3-5.3-3h-16l18.1 26.4-18.2 26.9h14.6c2.1 0 4.1-1.1 5.3-2.9l7.3-11.5 7.7 11.6c1.2 1.8 3.1 2.8 5.2 2.8h15.9l-18.3-26.6zm-53.2-49.2c-5 0-9 4-9 9s4 9 9 9 9-4 9-9c0-4.9-4-9-9-9z"/><path class="st4" d="M3222 802.9c-3.4-7.7-9.9-13.6-18.4-17.1 7.1-16.2 10.5-36.8 3-51.2-8.2-15.7-25.4-19.9-43.9-10.5-22.3 11.3-36.6 36.5-42.6 56.4-11.4 37.9.8 78.1 2.3 82.8v.1l2.4 7.4 7.4-2.3c10.2-3.2 20.2-5.5 29.9-7.7 24.6-5.7 45.9-10.6 56.5-27.2 6.5-9.8 7.7-21 3.4-30.7zm-86.7-17.8c4.8-16 16.7-37.8 34.6-46.9 3.6-1.8 7.8-3.3 11.7-3.3 4.3 0 8.4 1.8 11.1 7 4.6 8.9 2.4 26.1-5 40.8-32-.1-47.6 23.7-55.9 45.1-1.3-13.4-.8-28.7 3.5-42.7zm70.2 40c-7.2 11.3-24.7 15.3-46.9 20.4-5.7 1.3-11.5 2.7-17.4 4.3 7.4-27 18.9-53.4 50.1-51 7.9 1.3 13.9 5.2 16.3 10.6 2.1 4.7 1.4 10.3-2.1 15.7z"/><path d="M2761.2 794c5.5-2.2 11.2-7 11.2-16.2 0-14.6-11.9-20.8-31.2-20.8 0 0-26 .9-26 21.6v54.3h26c19.1 0 33.1-5.9 33.1-21.9.1-10.2-6.9-15.6-13.1-17zm-28.4-16.1c0-6.1 8.5-6.1 8.5-6.1 8 0 13 1.3 13 7.7s-5 7.9-13 7.9h-8.5v-9.5zm9 40.4h-9.1v-16.7h9.1c8 0 14.4 1.9 14.4 8.3s-6.4 8.4-14.4 8.4zm90.7-16.2c0-12.5-5.9-24.3-23.6-24.3-15.3 0-27.2 9.9-27.2 28.2 0 21.5 14.1 29.1 30.4 29.1 5 0 7.4-.8 12.2-2.2 2.7-.8 4.5-3.2 4.5-6v-9.6c-4 1.8-7.7 3.7-14.7 3.7-7.3 0-14-2-15.1-9.1h22.8c11.9-.1 10.7-9.8 10.7-9.8zm-33.6-1c.7-7.5 4.5-10.7 9.5-10.7 4.1 0 7.9 1.7 9.1 7.2.4 1.8-.9 3.5-2.7 3.5h-15.9zm149.8 1c0-12.5-5.9-24.3-23.6-24.3-15.3 0-27.2 9.9-27.2 28.2 0 21.5 14.1 29.1 30.4 29.1 5 0 7.4-.8 12.2-2.2 2.7-.8 4.5-3.2 4.5-6v-9.6c-4 1.8-7.7 3.7-14.7 3.7-7.3 0-14-2-15.1-9.1h22.8c11.9-.1 10.7-9.8 10.7-9.8zm-33.5-1c.7-7.5 4.5-10.7 9.5-10.7 4.1 0 7.9 1.7 9.1 7.2.4 1.8-.9 3.5-2.7 3.5h-15.9zm-43.9-23.3c-5.7 0-12.1 2.1-16 5.9 0 0-2.2-4-8.5-4h-7V833h10c3.5 0 6.3-2.8 6.3-6.3V796c2.4-1.5 5.6-2.8 9.9-2.8 4.5 0 8.4 2.1 8.4 8.3v25.3c0 3.5 2.8 6.3 6.3 6.3h9.9V800c-.1-15.7-8.6-22.2-19.3-22.2zm117.4 6.2l-9.9 29.6-9.9-29.6c-.9-2.6-3.3-4.3-5.9-4.3h-12.5l19.7 53.3h15.8l20.5-53.3h-11.9c-2.6 0-5 1.7-5.9 4.3zm25.1-4.3h16.3V833h-16.3zm61.3 26.6l17.7-26.6H3078c-2.2 0-4.2 1.1-5.4 3l-6.8 11.2-7-11.3c-1.1-1.8-3.2-3-5.3-3h-16l18.1 26.4-18.2 26.9h14.6c2.1 0 4.1-1.1 5.3-2.9l7.3-11.5 7.7 11.6c1.2 1.8 3.1 2.8 5.2 2.8h15.9l-18.3-26.6zm-53.1-49.2c-5 0-9 4-9 9s4 9 9 9 9-4 9-9c0-4.9-4.1-9-9-9zm1127 45.8c-3.4-7.7-9.9-13.6-18.4-17.1 7.1-16.2 10.5-36.8 3-51.2-8.2-15.7-25.4-19.9-43.9-10.5-22.3 11.3-36.6 36.5-42.6 56.4-11.4 37.9.8 78.1 2.3 82.8v.1l2.4 7.4 7.4-2.3c10.2-3.2 20.2-5.5 29.9-7.7 24.6-5.7 45.9-10.6 56.5-27.2 6.5-9.8 7.7-21 3.4-30.7zm-86.8-17.8c4.8-16 16.7-37.8 34.6-46.9 3.6-1.8 7.8-3.3 11.7-3.3 4.3 0 8.4 1.8 11.1 7 4.6 8.9 2.4 26.1-5 40.8-32-.1-47.6 23.7-55.9 45.1-1.2-13.4-.7-28.7 3.5-42.7zm70.2 40c-7.2 11.3-24.7 15.3-46.9 20.4-5.7 1.3-11.5 2.7-17.4 4.3 7.4-27 18.9-53.4 50.1-51 7.9 1.3 13.9 5.2 16.3 10.6 2.2 4.7 1.4 10.3-2.1 15.7zM3688.2 794c5.5-2.2 11.2-7 11.2-16.2 0-14.6-11.9-20.8-31.2-20.8 0 0-26 .9-26 21.6v54.3h26c19.1 0 33.1-5.9 33.1-21.9 0-10.2-7-15.6-13.1-17zm-28.5-16.1c0-6.1 8.5-6.1 8.5-6.1 8 0 13 1.3 13 7.7s-5 7.9-13 7.9h-8.5v-9.5zm9.1 40.4h-9.1v-16.7h9.1c8 0 14.4 1.9 14.4 8.3-.1 6.4-6.5 8.4-14.4 8.4zm90.6-16.2c0-12.5-5.9-24.3-23.6-24.3-15.3 0-27.2 9.9-27.2 28.2 0 21.5 14.1 29.1 30.4 29.1 5 0 7.4-.8 12.2-2.2 2.7-.8 4.5-3.2 4.5-6v-9.6c-4 1.8-7.7 3.7-14.7 3.7-7.3 0-14-2-15.1-9.1h22.8c11.9-.1 10.7-9.8 10.7-9.8zm-33.6-1c.7-7.5 4.5-10.7 9.5-10.7 4.1 0 7.9 1.7 9.1 7.2.4 1.8-.9 3.5-2.7 3.5h-15.9zm149.9 1c0-12.5-5.9-24.3-23.6-24.3-15.3 0-27.2 9.9-27.2 28.2 0 21.5 14.1 29.1 30.4 29.1 5 0 7.4-.8 12.2-2.2 2.7-.8 4.5-3.2 4.5-6v-9.6c-4 1.8-7.7 3.7-14.7 3.7-7.3 0-14-2-15.1-9.1h22.8c11.9-.1 10.7-9.8 10.7-9.8zm-33.6-1c.7-7.5 4.5-10.7 9.5-10.7 4.1 0 7.9 1.7 9.1 7.2.4 1.8-.9 3.5-2.7 3.5h-15.9zm-43.8-23.3c-5.7 0-12.1 2.1-16 5.9 0 0-2.2-4-8.5-4h-7V833h10c3.5 0 6.3-2.8 6.3-6.3V796c2.4-1.5 5.6-2.8 9.9-2.8 4.5 0 8.4 2.1 8.4 8.3v25.3c0 3.5 2.8 6.3 6.3 6.3h9.9V800c-.2-15.7-8.7-22.2-19.3-22.2zm117.4 6.2l-9.9 29.6-9.9-29.6c-.9-2.6-3.3-4.3-5.9-4.3h-12.5l19.7 53.3h15.8l20.5-53.3h-11.9c-2.7 0-5.1 1.7-5.9 4.3zm25-4.3h16.3V833h-16.3zm61.3 26.6l17.7-26.6H4005c-2.2 0-4.2 1.1-5.4 3l-6.8 11.2-7-11.3c-1.1-1.8-3.2-3-5.3-3h-16l18.1 26.4-18.2 26.9h14.6c2.1 0 4.1-1.1 5.3-2.9l7.3-11.5 7.7 11.6c1.2 1.8 3.1 2.8 5.2 2.8h15.9l-18.4-26.6zm-53.1-49.2c-5 0-9 4-9 9s4 9 9 9 9-4 9-9c0-4.9-4-9-9-9z"/></svg>